# xmcd
#
# Track frame offsets: 
#        150
#        12003
#        34482
#        60159
#        89490
#        119988
#        140780
#        163108
#        180672
#        199926
#        223757
#        247713
#        262761
#        276547
#        292394
#        306733
#        327802
#        340146
#
# Disc length: 4819 seconds
#
# Revision: 3
# Processed by: cddbd v1.5.2PL0 Copyright (c) Steve Scherf et al.
# Submitted via: ExactAudioCopy v1.0b1
#
DISCID=2312d112
DTITLE=Willie Nelson - Songs For Tsunami Relief
DYEAR=2005
DGENRE=Country
TTITLE0=Love Be Heard - Patty Griffin
TTITLE1=Mary - Patty Griffin
TTITLE2=Farther Along - All Just To Get To You - Joe Ely
TTITLE3=Boxcars - Joe Ely
TTITLE4=Everybody Loves Me - Jon Dee Graham
TTITLE5=Break This Time - Alejandro Escovedo
TTITLE6=My Mathematical Mind - Spoon
TTITLE7=Everything Hits At Once - Spoon
TTITLE8=What I Deserve - Kelly Willis
TTITLE9=Travelin' Soldier - Bruce Robison and Kelly Willis
TTITLE10=What Would WIllie Do? - Bruce Robison
TTITLE11=Living In The Promiseland - Willie Nelson
TTITLE12=Whiskey River - Willie Nelson
TTITLE13=Still Is Still Moving To Me - Willie Nelson
TTITLE14=Blue Eyes Crying In The Rain - Willie Nelson
TTITLE15=The Great Divide - Willie Nelson
TTITLE16=Mamas Don't Let Your Babies Grow Up To Be Cowboys - Willie Ne
TTITLE16=lson
TTITLE17=Angel Flying Too Close To The Ground - Willie Nelson and Patty 
TTITLE17=Griffin
EXTD=
EXTT0=
EXTT1=
EXTT2=
EXTT3=
EXTT4=
EXTT5=
EXTT6=
EXTT7=
EXTT8=
EXTT9=
EXTT10=
EXTT11=
EXTT12=
EXTT13=
EXTT14=
EXTT15=
EXTT16=
EXTT17=
PLAYORDER=
